<svg width="125" height="35" viewBox="0 0 125 35" fill="none" xmlns="http://www.w3.org/2000/svg">
<g clip-path="url(#clip0_2_146)">
<path d="M6.37675 34.3362H0V34.246C2.26805 32.042 3.11599 30.0506 4.48785 26.6544L14.6355 1.67554H15.5799L25.9206 27.1441C27.4786 30.9851 28.5678 32.6606 30.2154 34.2524V34.3426H20.8192V34.2524C21.6189 32.97 21.6189 30.1924 20.3022 26.925L18.365 22.1561H7.27294L6.28023 24.6308C4.15695 29.7928 5.38404 32.796 6.37675 34.2524V34.3426V34.3362ZM12.8431 8.51958L7.65209 21.2732H17.9928L12.8431 8.51958Z" fill="#666666"/>
<path d="M46.3193 30.5404C44.9061 32.8347 42.1624 35 38.2467 35C32.7248 35 29.1814 30.6757 29.1814 24.7597C29.1814 18.3603 33.428 12.6247 41.5075 12.6247C43.3481 12.6247 44.9544 12.9341 46.278 13.4174V8.16516C46.278 5.25226 45.2853 3.57669 44.1547 2.42957V2.33935L51.0002 0V24.9402C51.0002 30.9851 51.5655 32.0484 53.1717 33.3695V33.4598L46.4641 34.8711V30.5469H46.3193V30.5404ZM46.2711 29.6575V18.3152C45.4231 14.5645 43.0586 13.4174 40.887 13.4174C36.7301 13.4174 34.138 17.5226 34.138 23.2581C34.138 28.5555 36.3096 32.042 40.7009 32.042C43.1551 32.042 44.9957 31.0689 46.2711 29.6575Z" fill="#666666"/>
<path d="M66.1044 35C59.776 35 55.4811 30.3213 55.4811 24.1862C55.4811 17.0779 61.1961 12.6248 66.3871 12.6248C71.909 12.6248 75.6868 17.3486 75.4042 21.2281H60.2516V22.0659C60.2516 28.2913 63.5538 31.2493 68.5173 31.2493C71.3989 31.2493 73.5704 30.1924 75.1767 28.2913L75.4593 28.4653C74.2322 32.0871 71.0197 35 66.1113 35H66.1044ZM60.3413 20.5257L70.5854 20.3066V19.8233C70.5854 15.4539 69.1239 13.4239 66.1941 13.4239C62.6024 13.4239 60.7204 16.5108 60.3413 20.5321V20.5257ZM68.8413 1.28247L72.2882 4.41449L62.9402 10.4143L62.561 10.0599L68.8413 1.28247Z" fill="#666666"/>
<path d="M85.8827 34.3362H79.0372V34.246C79.9334 31.8164 80.1264 29.6575 80.1264 25.7715V20.5643C80.1264 17.6514 79.1337 16.021 78.0031 14.8287V14.7385L84.6625 12.3992V16.6332L84.8486 16.6783C86.8754 14.3841 89.1435 12.6183 92.4525 12.6183C96.7473 12.6183 99.1119 15.093 99.1119 19.0177V25.7264C99.1119 29.6962 99.2084 31.8164 100.201 34.246V34.3362H93.3556V34.246C94.2035 31.8164 94.3965 29.4771 94.3965 25.7715V20.0359C94.3965 17.5225 93.2177 15.3121 90.0534 15.3121C88.068 15.3121 86.2274 16.1499 84.8624 17.5161V25.7264C84.8624 29.5673 84.9589 31.8164 85.9034 34.246V34.3362H85.8827Z" fill="#666666"/>
<path d="M115.533 32.0871C114.071 33.6338 111.707 35 108.736 35C105.95 35 103.682 33.7626 103.682 31.2493C103.682 26.7897 110.48 24.6308 115.436 23.8768V19.0628C115.436 16.7685 114.444 15.267 111.093 15.267C109.301 15.267 106.847 15.7052 104.813 17.2519L104.579 16.9876C106.516 14.4292 109.866 12.6183 113.975 12.6183C118.745 12.6183 120.159 15.1316 120.159 17.8705V30.4502C120.159 31.5522 120.627 32.39 121.999 32.39C122.709 32.39 123.461 32.1709 124.316 31.5522L124.412 31.6424C123.702 33.0537 122.289 34.8646 119.455 34.8646C117.098 34.8646 115.864 33.5822 115.54 32.0871H115.533ZM115.436 31.3395V24.6308C111.707 25.4235 108.115 26.8799 108.115 29.7928C108.115 31.5135 109.342 32.6155 111.562 32.6155C113.168 32.6155 114.63 32.042 115.436 31.3331V31.3395Z" fill="#666666"/>
</g>
<defs>
<clipPath id="clip0_2_146">
<rect width="124.412" height="35" fill="white"/>
</clipPath>
</defs>
</svg>
